<svg width="412" height="37" viewBox="0 0 412 37" fill="none" xmlns="http://www.w3.org/2000/svg">
<path d="M190.831 32H186.174L183.081 26.2791H166.75L163.657 32H159L172.338 7.38696H177.493L190.831 32ZM174.932 11.212L168.945 22.2213H180.886L174.932 11.212ZM197.151 32H192.827V7.38696L197.151 32ZM220.766 32H216.443H220.766ZM216.443 26.0463V7.38696H220.766V32H216.443L197.151 13.3074V32H192.827V7.38696H197.151L216.443 26.0463ZM254.591 32H249.935L246.842 26.2791H230.511L227.417 32H222.761L236.098 7.38696H241.254L254.591 32ZM238.693 11.212L232.706 22.2213H244.646L238.693 11.212ZM260.912 7.38696V28.2415H278.54V32H256.588V7.38696H260.912ZM293.968 7.38696H299.456L287.516 21.6226V32H282.693V21.6891L270.719 7.38696H276.207L285.021 18.097L293.968 7.38696ZM301.628 11.1122V7.38696H328.935L301.628 11.1122ZM328.935 7.38696V11.212H317.527V32H313.203V11.212H301.628V7.38696H328.935ZM336.756 32H332.432V7.38696H336.756V32ZM340.082 19.7267C340.082 17.2654 340.736 15.048 342.044 13.0746C343.375 11.1011 345.182 9.56 347.466 8.45131C349.75 7.32043 352.289 6.755 355.083 6.755C358.431 6.755 361.369 7.58652 363.897 9.24957C366.447 10.9126 368.287 13.2741 369.418 16.3341L364.895 16.4007C364.429 15.1589 363.642 14.0946 362.533 13.2076C361.424 12.3207 360.194 11.6554 358.841 11.212C357.511 10.7463 356.269 10.5135 355.116 10.5135C353.386 10.5135 351.69 10.8793 350.027 11.6111C348.386 12.3207 347.034 13.3739 345.969 14.7709C344.927 16.1678 344.406 17.8198 344.406 19.7267C344.406 21.678 344.894 23.3411 345.869 24.7159C346.845 26.0907 348.142 27.1328 349.761 27.8424C351.402 28.552 353.187 28.9067 355.116 28.9067C356.247 28.9067 357.433 28.6961 358.675 28.2748C359.917 27.8313 361.081 27.1772 362.167 26.3124C363.254 25.4476 364.119 24.3943 364.762 23.1526H369.451C368.21 26.257 366.336 28.6185 363.83 30.2372C361.347 31.8559 358.431 32.6652 355.083 32.6652C352.311 32.6652 349.772 32.0998 347.466 30.9689C345.182 29.838 343.375 28.2859 342.044 26.3124C340.736 24.3389 340.082 22.1437 340.082 19.7267ZM386.876 17.8641C389.737 17.8641 392.132 17.9972 394.061 18.2633C396.012 18.5072 397.631 19.0948 398.917 20.0261C400.203 20.9574 400.846 22.3654 400.846 24.2502C400.846 27.5985 399.394 29.8602 396.489 31.0354C393.606 32.1885 390.347 32.765 386.71 32.765C384.737 32.765 382.663 32.5433 380.49 32.0998C378.317 31.6785 376.377 30.8137 374.67 29.5054C372.962 28.175 372.109 26.3013 372.109 23.8843L376.665 23.7513C376.665 25.3035 377.275 26.4565 378.495 27.2104C379.736 27.9643 381.089 28.43 382.553 28.6074C384.016 28.7848 385.568 28.8735 387.209 28.8735C389.737 28.8735 391.899 28.5298 393.695 27.8424C395.513 27.155 396.433 26.002 396.456 24.3833V24.35C396.456 23.2635 395.569 22.5761 393.795 22.2878C392.021 21.9774 389.848 21.8222 387.276 21.8222H386.411C383.173 21.8 380.579 21.6559 378.628 21.3898C376.699 21.1237 375.124 20.5028 373.905 19.5272C372.707 18.5515 372.109 17.0437 372.109 15.0037C372.109 11.5667 373.628 9.31609 376.665 8.25174C379.725 7.18739 383.074 6.65522 386.71 6.65522C388.595 6.65522 390.591 6.87696 392.697 7.32043C394.804 7.74174 396.688 8.61761 398.351 9.94804C400.014 11.2563 400.846 13.1189 400.846 15.5359H396.289C396.289 13.9615 395.369 12.7752 393.529 11.977C391.71 11.1565 389.482 10.6909 386.843 10.58C383.961 10.58 381.51 10.9348 379.493 11.6443C377.497 12.3317 376.499 13.4183 376.499 14.9039C376.499 16.1457 377.43 16.955 379.293 17.332C381.156 17.6867 383.384 17.8641 385.978 17.8641H386.012H386.577H386.843H386.876Z" fill="white"/>
<g clip-path="url(#clip0_47_2)">
<mask id="mask0_47_2" style="mask-type:luminance" maskUnits="userSpaceOnUse" x="0" y="0" width="143" height="37">
<path d="M143 0H0V36.3722H143V0Z" fill="white"/>
</mask>
<g mask="url(#mask0_47_2)">
<path d="M54.6616 0.855225L42.3245 33.0885H48.9545L51.5148 26.3564H64.6135L67.1617 33.0885H73.7414L61.45 0.855225H54.6616ZM53.7614 20.4407L58.0779 9.09823L62.37 20.4407H53.7614Z" fill="white"/>
<path d="M131.266 10.0364C128.946 10.0364 126.678 10.7242 124.75 12.0129C122.821 13.3016 121.318 15.1333 120.431 17.2762C119.543 19.4192 119.311 21.7772 119.763 24.0522C120.216 26.3272 121.333 28.417 122.973 30.0571C124.613 31.6973 126.702 32.8143 128.977 33.2668C131.253 33.7193 133.611 33.4871 135.754 32.5994C137.896 31.7117 139.728 30.2086 141.017 28.2799C142.306 26.3513 142.993 24.0838 142.993 21.7643C142.993 18.6538 141.757 15.6708 139.559 13.4715C137.359 11.272 134.376 10.0364 131.266 10.0364ZM131.266 27.479C130.136 27.479 129.031 27.1439 128.092 26.5162C127.152 25.8883 126.42 24.9961 125.987 23.9521C125.555 22.9082 125.442 21.7594 125.663 20.6512C125.883 19.543 126.427 18.525 127.226 17.7261C128.025 16.927 129.042 16.3829 130.151 16.1624C131.259 15.942 132.408 16.0551 133.452 16.4876C134.495 16.9199 135.388 17.6523 136.016 18.5917C136.643 19.5313 136.978 20.6358 136.978 21.7659C136.98 22.5164 136.833 23.2599 136.547 23.9535C136.259 24.6472 135.839 25.2775 135.308 25.8082C134.778 26.3391 134.147 26.7598 133.453 27.0465C132.76 27.3332 132.016 27.4801 131.266 27.479Z" fill="white"/>
<path d="M81.6417 24.7755L76.2865 10.4431H69.9626L78.5819 33.0885H84.8555L93.3208 10.4431H86.997L81.6417 24.7755Z" fill="white"/>
<path d="M113.211 4.42535H107.193V10.4431H103.675V15.8501H107.193V25.4898C107.193 30.9471 110.203 33.2926 114.435 33.2926C115.871 33.3134 117.295 33.0353 118.618 32.4762V26.8667C117.898 27.132 117.139 27.2726 116.373 27.2825C114.545 27.2825 113.211 26.5681 113.211 24.1205V15.8501H118.618V10.4431H113.211V4.42535Z" fill="white"/>
<path d="M98.268 8.81188C100.691 8.81188 102.655 6.84798 102.655 4.42536C102.655 2.00276 100.691 0.0388489 98.268 0.0388489C95.8454 0.0388489 93.8813 2.00276 93.8813 4.42536C93.8813 6.84798 95.8454 8.81188 98.268 8.81188Z" fill="white"/>
<path d="M101.277 10.4431H95.2598V33.0885H101.277V10.4431Z" fill="white"/>
<path d="M11.7697 36.3023C18.2484 36.3023 23.5006 31.0501 23.5006 24.5714C23.5006 18.0926 18.2484 12.8405 11.7697 12.8405C5.29091 12.8405 0.0388184 18.0926 0.0388184 24.5714C0.0388184 31.0501 5.29091 36.3023 11.7697 36.3023Z" fill="#04E061"/>
<path d="M32.1198 34.8218C36.0347 34.8218 39.2083 31.6482 39.2083 27.7333C39.2083 23.8184 36.0347 20.6448 32.1198 20.6448C28.2049 20.6448 25.0312 23.8184 25.0312 27.7333C25.0312 31.6482 28.2049 34.8218 32.1198 34.8218Z" fill="#FF4053"/>
<path d="M14.0132 11.3112C16.4359 11.3112 18.3998 9.34733 18.3998 6.92473C18.3998 4.50212 16.4359 2.53821 14.0132 2.53821C11.5906 2.53821 9.62671 4.50212 9.62671 6.92473C9.62671 9.34733 11.5906 11.3112 14.0132 11.3112Z" fill="#965EEB"/>
<path d="M29.366 19.1142C34.6335 19.1142 38.9037 14.844 38.9037 9.57651C38.9037 4.30899 34.6335 0.0388489 29.366 0.0388489C24.0985 0.0388489 19.8284 4.30899 19.8284 9.57651C19.8284 14.844 24.0985 19.1142 29.366 19.1142Z" fill="#00AAFF"/>
</g>
</g>
<defs>
<clipPath id="clip0_47_2">
<rect width="143" height="36.3722" fill="white"/>
</clipPath>
</defs>
</svg>
